<mxfile host="65bd71144e" modified="2021-02-24T00:38:33.688Z" agent="5.0 (Windows NT 10.0; Win64; x64) AppleWebKit/537.36 (KHTML, like Gecko) Code/1.53.2 Chrome/87.0.4280.141 Electron/11.2.1 Safari/537.36" version="14.2.4" etag="pgbci1EBQzMVWgZakjob" type="embed">
    <diagram id="Bf982y5qnFHTo9PACOBG" name="Page-1">
        <mxGraphModel dx="663" dy="545" grid="1" gridSize="10" guides="1" tooltips="1" connect="1" arrows="1" fold="1" page="1" pageScale="1" pageWidth="827" pageHeight="1169" math="0" shadow="0">
            <root>
                <mxCell id="0"/>
                <mxCell id="1" parent="0"/>
                <mxCell id="2" value="&lt;h1&gt;Heading&lt;/h1&gt;&lt;p&gt;Lorem ipsum dolor sit amet, consectetur adipisicing elit, sed do eiusmod tempor incididunt ut labore et dolore magna aliqua.&lt;/p&gt;" style="text;html=1;strokeColor=none;fillColor=none;spacing=5;spacingTop=-20;whiteSpace=wrap;overflow=hidden;rounded=0;" vertex="1" parent="1">
                    <mxGeometry x="250" y="220" width="190" height="120" as="geometry"/>
                </mxCell>
                <mxCell id="3" value="" style="shape=process;whiteSpace=wrap;html=1;backgroundOutline=1;size=0.16666666666666666;" vertex="1" parent="1">
                    <mxGeometry x="140" y="370" width="120" height="60" as="geometry"/>
                </mxCell>
            </root>
        </mxGraphModel>
    </diagram>
</mxfile>